<svg xmlns="http://www.w3.org/2000/svg" width="197" height="192" viewBox="0 0 197 192" version="1.1"><path d="M 78.023 70.986 C 77.061 71.581, 76.896 74.191, 77.352 81.637 C 77.683 87.062, 77.965 91.900, 77.977 92.390 C 78.015 93.891, 88.506 92.292, 92.719 90.143 C 94.905 89.028, 99.027 85.563, 101.878 82.443 C 107.091 76.740, 107.601 74.813, 104.821 71.329 C 103.751 69.988, 80.127 69.685, 78.023 70.986 M 160.143 71.377 C 159.652 71.995, 153.742 84.200, 147.009 98.500 C 140.276 112.800, 134.043 125.074, 133.157 125.776 C 131.805 126.847, 131.256 126.687, 129.726 124.776 C 127.666 122.203, 141.018 149.420, 143.309 152.465 C 144.727 154.349, 144.828 154.288, 145.786 150.965 C 146.753 147.609, 151.107 136.963, 155.075 128.250 C 158.774 120.127, 159.240 122.525, 158.859 147.750 L 158.500 171.500 161.309 171.822 C 162.854 171.999, 164.365 172.787, 164.666 173.572 C 165.094 174.687, 167.578 175, 176.006 175 L 186.799 175 187.164 170.402 C 187.365 167.873, 187.213 159.885, 186.826 152.652 C 186.262 142.134, 186.494 110.603, 187.400 74.500 L 187.500 70.500 174.267 70.377 C 165.534 70.295, 160.731 70.635, 160.143 71.377 M 110.750 93.375 C 108.688 93.913, 107.014 94.611, 107.032 94.926 C 107.049 95.242, 109.072 96.719, 111.528 98.209 C 114.018 99.720, 117.210 102.880, 118.746 105.355 C 120.261 107.796, 122.036 110.627, 122.692 111.646 C 123.347 112.666, 121.840 108.775, 119.343 103 C 116.845 97.225, 114.734 92.477, 114.651 92.449 C 114.568 92.421, 112.813 92.838, 110.750 93.375 M 77.989 120.750 C 77.984 132.713, 77.695 148.843, 77.349 156.597 L 76.718 170.693 79.109 171.333 C 80.424 171.685, 82.752 171.979, 84.281 171.986 C 85.821 171.994, 87.320 172.670, 87.638 173.500 C 88.082 174.656, 90.005 175, 96.034 175 C 102.664 175, 103.913 174.734, 104.248 173.250 C 104.465 172.287, 104.436 162.275, 104.184 151 L 103.726 130.500 100.673 125 C 94.736 114.304, 87.847 104.902, 83.799 101.969 C 81.544 100.336, 79.317 99, 78.850 99 C 78.382 99, 77.995 108.787, 77.989 120.750 M 126 119 C 126 119.733, 126.300 120.033, 126.667 119.667 C 127.033 119.300, 127.033 118.700, 126.667 118.333 C 126.300 117.967, 126 118.267, 126 119" stroke="none" fill="#000000" fill-rule="evenodd"/><path d="M 12.250 16.250 C 12.479 16.937, 14.654 17.794, 17.083 18.154 C 26.007 19.476, 30.677 22.893, 34.310 30.757 C 36.485 35.468, 36.500 35.900, 36.500 94.500 C 36.500 139.486, 36.197 154.499, 35.224 157.705 C 32.769 165.790, 26.129 171.108, 16.727 172.518 C 13.705 172.971, 12 173.727, 12 174.614 C 12 175.771, 18.267 176, 49.969 176 C 82.313 176, 87.857 175.790, 87.394 174.584 C 87.085 173.779, 84.748 172.878, 81.986 172.498 C 75.387 171.590, 68.645 167.136, 65.797 161.802 C 63.569 157.629, 63.490 156.585, 63.183 127.114 L 62.866 96.728 70.327 97.207 C 76.005 97.572, 78.869 98.319, 82.309 100.335 C 91.094 105.484, 100.975 121.792, 116.596 156.922 C 121.117 167.090, 125.511 175.655, 126.360 175.955 C 127.210 176.255, 136.230 176.368, 146.405 176.208 C 161.409 175.971, 164.807 175.661, 164.388 174.570 C 164.104 173.830, 161.914 172.676, 159.522 172.006 C 151.844 169.856, 148.108 164.367, 131.034 130.150 C 124.496 117.048, 117.941 104.895, 116.468 103.144 C 114.995 101.393, 111.735 98.757, 109.225 97.286 L 104.660 94.611 111.795 92.432 C 130.593 86.692, 140.518 73.904, 140.457 55.500 C 140.385 33.561, 126.264 19.647, 100.425 16.053 C 88.997 14.463, 11.712 14.636, 12.250 16.250 M 63 55.984 L 63 94.241 75.250 93.832 C 89.824 93.346, 94.212 91.688, 101.472 83.926 C 108.329 76.596, 111.301 69.403, 111.812 58.902 C 112.709 40.460, 103.436 24.880, 89.012 20.596 C 86.318 19.796, 79.362 18.823, 73.556 18.434 L 63 17.727 63 55.984" stroke="none" fill="#ff0000" fill-rule="evenodd"/><path d="M 12.250 16.250 C 12.479 16.937, 14.654 17.794, 17.083 18.154 C 26.007 19.476, 30.677 22.893, 34.310 30.757 C 36.485 35.468, 36.500 35.900, 36.500 94.500 C 36.500 139.486, 36.197 154.499, 35.224 157.705 C 32.769 165.790, 26.129 171.108, 16.727 172.518 C 13.705 172.971, 12 173.727, 12 174.614 C 12 175.771, 18.267 176, 49.969 176 C 82.313 176, 87.857 175.790, 87.394 174.584 C 87.085 173.779, 84.748 172.878, 81.986 172.498 C 75.387 171.590, 68.645 167.136, 65.797 161.802 C 63.569 157.629, 63.490 156.585, 63.183 127.114 L 62.866 96.728 70.327 97.207 C 76.005 97.572, 78.869 98.319, 82.309 100.335 C 91.094 105.484, 100.975 121.792, 116.596 156.922 C 121.117 167.090, 125.511 175.655, 126.360 175.955 C 127.210 176.255, 136.230 176.368, 146.405 176.208 C 161.409 175.971, 164.807 175.661, 164.388 174.570 C 164.104 173.830, 161.914 172.676, 159.522 172.006 C 151.844 169.856, 148.108 164.367, 131.034 130.150 C 124.496 117.048, 117.941 104.895, 116.468 103.144 C 114.995 101.393, 111.735 98.757, 109.225 97.286 L 104.660 94.611 111.795 92.432 C 130.593 86.692, 140.518 73.904, 140.457 55.500 C 140.385 33.561, 126.264 19.647, 100.425 16.053 C 88.997 14.463, 11.712 14.636, 12.250 16.250 M 63 55.984 L 63 94.241 75.250 93.832 C 89.824 93.346, 94.212 91.688, 101.472 83.926 C 108.329 76.596, 111.301 69.403, 111.812 58.902 C 112.709 40.460, 103.436 24.880, 89.012 20.596 C 86.318 19.796, 79.362 18.823, 73.556 18.434 L 63 17.727 63 55.984" stroke="none" fill="#ff0000" fill-rule="evenodd"/><path d="M 84.350 69.683 C 84.726 70.059, 89.399 70.397, 94.735 70.433 C 103.785 70.496, 104.512 70.652, 105.569 72.768 C 106.677 74.986, 108.766 77.474, 107.863 75.500 C 104.690 68.564, 105.609 69, 94.164 69 C 88.391 69, 83.974 69.307, 84.350 69.683 M 158.020 72.960 C 155.279 78.334, 155.484 79.468, 158.300 74.500 C 160.480 70.653, 160.764 70.498, 165.741 70.459 C 168.586 70.437, 171.234 70.100, 171.624 69.709 C 172.014 69.319, 169.567 69, 166.187 69 L 160.041 69 158.020 72.960 M 176.329 69.662 C 177.253 70.587, 188 70.668, 188 69.750 C 188 69.338, 185.225 69, 181.833 69 C 178.442 69, 175.965 69.298, 176.329 69.662 M 76.015 76.250 C 76.024 79.688, 76.382 83.053, 76.811 83.729 C 77.241 84.405, 77.403 81.991, 77.172 78.365 C 76.863 73.500, 77.113 71.543, 78.126 70.901 C 79.209 70.215, 79.130 70.027, 77.750 70.015 C 76.267 70.002, 76.002 70.953, 76.015 76.250 M 105.405 78.155 C 104.962 78.870, 105.130 79.038, 105.845 78.595 C 106.998 77.883, 107.393 77, 106.559 77 C 106.316 77, 105.797 77.520, 105.405 78.155 M 187.206 89 C 187.078 95.875, 186.693 102.625, 186.350 104 C 185.884 105.873, 186.020 106.229, 186.893 105.421 C 187.703 104.671, 187.964 100.095, 187.749 90.421 L 187.439 76.500 187.206 89 M 151.702 86.552 C 149.666 90.666, 148.022 94.363, 148.050 94.767 C 148.077 95.170, 149.906 91.966, 152.114 87.647 C 154.321 83.328, 155.965 79.631, 155.766 79.432 C 155.567 79.233, 153.738 82.437, 151.702 86.552 M 100 84.500 C 97.571 86.975, 95.809 89, 96.084 89 C 96.359 89, 98.571 86.975, 101 84.500 C 103.429 82.025, 105.191 80, 104.916 80 C 104.641 80, 102.429 82.025, 100 84.500 M 77.160 90.250 C 77.001 93.971, 77.029 93.999, 80.750 93.840 C 84.357 93.686, 84.379 93.665, 81.309 93.281 C 78.578 92.940, 78.060 92.422, 77.719 89.691 C 77.335 86.621, 77.314 86.643, 77.160 90.250 M 92 90.500 C 90.625 91.286, 89.976 91.945, 90.559 91.965 C 91.141 91.984, 92.491 91.339, 93.559 90.532 C 96.028 88.664, 95.239 88.648, 92 90.500 M 86.813 92.683 C 87.534 92.972, 88.397 92.936, 88.729 92.604 C 89.061 92.272, 88.471 92.036, 87.417 92.079 C 86.252 92.127, 86.015 92.364, 86.813 92.683 M 112.333 92.667 C 112.700 93.033, 113.300 93.033, 113.667 92.667 C 114.033 92.300, 113.733 92, 113 92 C 112.267 92, 111.967 92.300, 112.333 92.667 M 115.031 92.500 C 115.031 93.050, 115.467 94.175, 116 95 C 116.533 95.825, 116.969 96.050, 116.969 95.500 C 116.969 94.950, 116.533 93.825, 116 93 C 115.467 92.175, 115.031 91.950, 115.031 92.500 M 108.813 93.683 C 109.534 93.972, 110.397 93.936, 110.729 93.604 C 111.061 93.272, 110.471 93.036, 109.417 93.079 C 108.252 93.127, 108.015 93.364, 108.813 93.683 M 105.500 95 C 105.840 95.550, 106.316 96, 106.559 96 C 106.802 96, 107 95.550, 107 95 C 107 94.450, 106.523 94, 105.941 94 C 105.359 94, 105.160 94.450, 105.500 95 M 110.500 98 C 110.840 98.550, 111.343 99, 111.618 99 C 111.893 99, 111.840 98.550, 111.500 98 C 111.160 97.450, 110.657 97, 110.382 97 C 110.107 97, 110.160 97.450, 110.500 98 M 117.113 97.500 C 117.090 98.050, 117.714 99.625, 118.500 101 C 120.243 104.049, 120.426 106.381, 118.845 105.405 C 118.124 104.959, 117.963 105.131, 118.415 105.862 C 118.813 106.506, 119.634 106.726, 120.239 106.352 C 120.954 105.910, 121.109 106.273, 120.681 107.388 C 120.238 108.544, 120.401 108.870, 121.181 108.388 C 121.962 107.905, 122.125 108.231, 121.681 109.388 C 121.238 110.544, 121.401 110.870, 122.181 110.388 C 122.921 109.931, 123.139 110.196, 122.784 111.122 C 122.089 112.930, 125.463 119.677, 126.347 118.248 C 126.702 117.674, 124.779 112.546, 122.073 106.852 C 119.368 101.158, 117.136 96.950, 117.113 97.500 M 77.208 124.250 C 77.415 150.551, 77.763 147.532, 78.243 115.249 C 78.384 105.761, 78.162 97.998, 77.750 97.999 C 77.338 97.999, 77.093 109.813, 77.208 124.250 M 142.702 105.552 C 140.666 109.666, 139.022 113.363, 139.050 113.767 C 139.077 114.170, 140.906 110.966, 143.114 106.647 C 145.321 102.328, 146.965 98.631, 146.766 98.432 C 146.567 98.233, 144.738 101.437, 142.702 105.552 M 115 101.500 C 116.292 102.875, 117.574 104, 117.849 104 C 118.124 104, 117.292 102.875, 116 101.500 C 114.708 100.125, 113.426 99, 113.151 99 C 112.876 99, 113.708 100.125, 115 101.500 M 82.500 101 C 82.840 101.550, 83.343 102, 83.618 102 C 83.893 102, 83.840 101.550, 83.500 101 C 83.160 100.450, 82.657 100, 82.382 100 C 82.107 100, 82.160 100.450, 82.500 101 M 86.500 104 C 87.495 105.100, 88.535 106, 88.810 106 C 89.085 106, 88.495 105.100, 87.500 104 C 86.505 102.900, 85.465 102, 85.190 102 C 84.915 102, 85.505 102.900, 86.500 104 M 93.592 113.250 C 95.622 116.412, 97.470 119, 97.698 119 C 98.368 119, 94.750 113.204, 92.226 110.235 C 90.947 108.731, 91.562 110.088, 93.592 113.250 M 186.400 123.500 C 186.401 131.750, 186.556 134.992, 186.744 130.704 C 186.932 126.417, 186.931 119.667, 186.742 115.704 C 186.552 111.742, 186.399 115.250, 186.400 123.500 M 126.551 119.917 C 126.183 120.513, 126.385 121, 127 121 C 127.615 121, 127.840 121.450, 127.500 122 C 127.160 122.550, 127.385 123, 128 123 C 128.615 123, 128.797 123.520, 128.405 124.155 C 127.930 124.923, 128.134 125.035, 129.015 124.490 C 129.960 123.906, 130.168 124.120, 129.739 125.237 C 129.320 126.330, 129.646 126.705, 130.819 126.478 C 131.744 126.299, 132.826 126.119, 133.224 126.077 C 134.007 125.994, 137.002 120.612, 136.996 119.300 C 136.994 118.860, 136.101 119.963, 135.011 121.750 C 132.546 125.793, 131.471 125.823, 129.096 121.917 C 127.983 120.087, 126.949 119.274, 126.551 119.917 M 100.500 125 C 101.353 126.650, 102.276 128, 102.551 128 C 102.826 128, 102.353 126.650, 101.500 125 C 100.647 123.350, 99.724 122, 99.449 122 C 99.174 122, 99.647 123.350, 100.500 125 M 155.954 126.086 C 155.340 127.233, 155.058 128.392, 155.328 128.661 C 155.597 128.930, 156.133 128.157, 156.518 126.943 C 157.066 125.218, 157.410 125.038, 158.094 126.118 C 158.788 127.214, 158.973 127.138, 158.985 125.750 C 159.006 123.359, 157.313 123.546, 155.954 126.086 M 153.028 132.426 C 151.542 136.335, 151.836 136.950, 153.618 133.662 C 154.464 132.100, 154.909 130.576, 154.606 130.273 C 154.304 129.970, 153.593 130.939, 153.028 132.426 M 104.397 145 C 104.397 152.975, 104.553 156.238, 104.743 152.250 C 104.932 148.262, 104.932 141.738, 104.743 137.750 C 104.553 133.762, 104.397 137.025, 104.397 145 M 158.378 142 C 158.378 148.325, 158.541 150.912, 158.739 147.750 C 158.937 144.588, 158.937 139.412, 158.739 136.250 C 158.541 133.088, 158.378 135.675, 158.378 142 M 133 134.642 C 133 135.179, 133.700 136.491, 134.555 137.559 C 136.022 139.389, 136.042 139.357, 134.920 137 C 133.462 133.939, 133 133.372, 133 134.642 M 148.526 143.526 C 146.995 147.129, 145.950 150.283, 146.204 150.537 C 146.457 150.791, 147.858 147.991, 149.316 144.316 C 152.759 135.636, 152.142 135.019, 148.526 143.526 M 186.732 150.223 C 187.257 165.637, 187.748 166.835, 187.869 153 C 187.924 146.675, 187.605 140.925, 187.159 140.223 C 186.713 139.520, 186.521 144.020, 186.732 150.223 M 142.554 152.921 C 144.016 155.909, 144.353 156.121, 145.206 154.596 C 145.744 153.636, 145.917 152.584, 145.592 152.258 C 145.266 151.933, 144.990 152.304, 144.978 153.083 C 144.964 153.963, 144.183 153.553, 142.918 152 L 140.880 149.500 142.554 152.921 M 76.427 152.329 C 76.147 153.060, 76.048 157.668, 76.209 162.568 C 76.440 169.632, 76.811 171.500, 78 171.585 C 79.045 171.660, 79.093 171.560, 78.159 171.255 C 77.126 170.919, 76.897 168.543, 77.159 160.908 C 77.347 155.458, 77.373 150.998, 77.219 150.999 C 77.064 151, 76.708 151.598, 76.427 152.329 M 158.195 160.500 C 158.215 162.150, 158.439 162.704, 158.693 161.731 C 158.947 160.758, 158.930 159.408, 158.656 158.731 C 158.382 158.054, 158.175 158.850, 158.195 160.500 M 104.079 163.583 C 104.127 164.748, 104.364 164.985, 104.683 164.188 C 104.972 163.466, 104.936 162.603, 104.604 162.271 C 104.272 161.939, 104.036 162.529, 104.079 163.583 M 157 167.941 C 157 169.559, 157.356 171.102, 157.791 171.371 C 158.226 171.640, 158.402 170.316, 158.182 168.430 C 157.691 164.227, 157 163.941, 157 167.941 M 187.272 171 C 187.272 173.475, 187.467 174.488, 187.706 173.250 C 187.944 172.012, 187.944 169.988, 187.706 168.750 C 187.467 167.512, 187.272 168.525, 187.272 171 M 83.961 172.733 C 85.314 172.987, 86.899 173.847, 87.483 174.646 C 88.290 175.750, 90.334 176.013, 96.022 175.747 L 103.500 175.397 95.857 175.199 C 90.118 175.050, 88.071 174.626, 87.638 173.500 C 87.297 172.611, 85.930 172.055, 84.281 172.136 C 81.625 172.266, 81.611 172.293, 83.961 172.733 M 104.079 173.583 C 104.127 174.748, 104.364 174.985, 104.683 174.188 C 104.972 173.466, 104.936 172.603, 104.604 172.271 C 104.272 171.939, 104.036 172.529, 104.079 173.583 M 162 172.741 C 162.825 173.062, 163.956 173.943, 164.514 174.700 C 165.291 175.754, 167.979 175.999, 176.014 175.748 L 186.500 175.422 175.857 175.211 C 167.457 175.044, 165.093 174.684, 164.638 173.500 C 164.322 172.675, 163.261 172.036, 162.281 172.079 C 160.874 172.141, 160.815 172.280, 162 172.741 M 130.762 176.707 C 132.006 176.946, 133.806 176.937, 134.762 176.687 C 135.718 176.437, 134.700 176.241, 132.500 176.252 C 130.300 176.263, 129.518 176.468, 130.762 176.707" stroke="none" fill="#060606" fill-rule="evenodd"/><path d="M 0 96.005 L 0 192.010 98.750 191.755 L 197.500 191.500 197.755 95.750 L 198.010 0 99.005 0 L 0 0 0 96.005 M 0.480 96.500 C 0.480 149.300, 0.602 170.753, 0.750 144.174 C 0.898 117.595, 0.898 74.395, 0.750 48.174 C 0.601 21.953, 0.480 43.700, 0.480 96.500 M 12.250 16.250 C 12.479 16.937, 14.654 17.794, 17.083 18.154 C 26.007 19.476, 30.677 22.893, 34.310 30.757 C 36.485 35.468, 36.500 35.900, 36.500 94.500 C 36.500 139.486, 36.197 154.499, 35.224 157.705 C 32.769 165.790, 26.129 171.108, 16.727 172.518 C 13.705 172.971, 12 173.727, 12 174.614 C 12 175.775, 19.293 176, 56.918 176 C 81.623 176, 102.548 175.727, 103.418 175.393 C 104.789 174.867, 105.006 171.972, 105.047 153.643 L 105.093 132.500 107.438 137 C 108.727 139.475, 113.047 148.925, 117.036 158 C 121.026 167.075, 124.688 174.941, 125.174 175.479 C 126.044 176.442, 182.744 176.401, 186.071 175.435 C 187.473 175.028, 187.644 169.289, 187.661 122.047 L 187.679 69.115 173.715 69.308 L 159.751 69.500 147.298 96 C 140.449 110.575, 134.205 123.159, 133.423 123.964 C 131.238 126.213, 130.025 124.384, 122.231 107.081 L 115.286 91.662 120.393 89.135 C 127.630 85.553, 135.319 77.372, 138.098 70.297 C 141.107 62.635, 141.253 48.811, 138.400 41.824 C 132.382 27.093, 120.159 18.798, 100.425 16.053 C 88.997 14.463, 11.712 14.636, 12.250 16.250 M 63 55.864 L 63 94 70.088 94 L 77.175 94 76.468 82.155 L 75.762 70.310 82.027 69.655 C 85.474 69.295, 91.996 69, 96.522 69 L 104.750 69 106.323 72.247 L 107.896 75.494 109.612 71.497 C 112.087 65.734, 112.636 51.692, 110.652 44.902 C 108.433 37.308, 103.250 29.152, 98.206 25.317 C 92.552 21.017, 86.377 19.293, 73.556 18.434 L 63 17.727 63 55.864 M 63.184 127.250 C 63.489 156.406, 63.581 157.652, 65.753 161.716 C 66.992 164.035, 69.692 167.080, 71.753 168.483 L 75.500 171.035 76.123 160.267 C 76.465 154.345, 76.803 137.961, 76.873 123.857 C 77.017 94.840, 77.702 97, 68.352 97 L 62.868 97 63.184 127.250 M 151.626 138.589 C 148.501 146.173, 145.683 153.416, 145.364 154.684 C 144.442 158.360, 154.632 172.701, 156.698 170.635 C 157.636 169.698, 158.840 127.884, 157.979 126.150 C 157.582 125.351, 154.993 130.421, 151.626 138.589" stroke="none" fill="#faf9f9" fill-rule="evenodd"/></svg>